<?xml version="1.0" encoding="UTF-8" standalone="no"?><!DOCTYPE svg PUBLIC "-//W3C//DTD SVG 1.1//EN" "http://www.w3.org/Graphics/SVG/1.1/DTD/svg11.dtd"><svg width="100%" height="100%" viewBox="0 0 540 540" version="1.1" xmlns="http://www.w3.org/2000/svg" xmlns:xlink="http://www.w3.org/1999/xlink" xml:space="preserve" xmlns:serif="http://www.serif.com/" style="fill-rule:evenodd;clip-rule:evenodd;stroke-linejoin:round;stroke-miterlimit:2;"><g transform="matrix(120,0,0,120,7.40813,312)"><path d="M0.418,0.012c-0.054,-0 -0.104,-0.009 -0.151,-0.027c-0.046,-0.017 -0.086,-0.042 -0.12,-0.075c-0.034,-0.032 -0.06,-0.071 -0.079,-0.115c-0.019,-0.044 -0.029,-0.092 -0.029,-0.145c0,-0.053 0.01,-0.101 0.029,-0.145c0.019,-0.044 0.045,-0.083 0.079,-0.115c0.035,-0.033 0.075,-0.058 0.121,-0.075c0.046,-0.018 0.097,-0.027 0.151,-0.027c0.061,0 0.116,0.011 0.165,0.032c0.049,0.021 0.09,0.051 0.123,0.092l-0.104,0.096c-0.024,-0.027 -0.05,-0.048 -0.08,-0.062c-0.029,-0.014 -0.061,-0.02 -0.096,-0.02c-0.033,-0 -0.063,0.005 -0.09,0.016c-0.027,0.011 -0.051,0.026 -0.071,0.046c-0.02,0.02 -0.035,0.044 -0.046,0.071c-0.011,0.028 -0.017,0.058 -0.017,0.091c0,0.033 0.006,0.063 0.017,0.091c0.011,0.027 0.026,0.051 0.046,0.071c0.02,0.02 0.044,0.035 0.071,0.046c0.027,0.011 0.057,0.016 0.09,0.016c0.035,0 0.067,-0.006 0.096,-0.02c0.03,-0.014 0.056,-0.035 0.08,-0.063l0.104,0.096c-0.033,0.041 -0.074,0.071 -0.123,0.093c-0.049,0.021 -0.105,0.032 -0.166,0.032Z" style="fill-rule:nonzero;"/></g><g transform="matrix(120,0,0,120,90.5681,312)"><path d="M0.423,0.012c-0.056,-0 -0.107,-0.009 -0.153,-0.027c-0.047,-0.018 -0.088,-0.044 -0.122,-0.076c-0.034,-0.033 -0.061,-0.071 -0.08,-0.115c-0.019,-0.044 -0.029,-0.092 -0.029,-0.144c0,-0.052 0.01,-0.1 0.029,-0.144c0.019,-0.044 0.046,-0.082 0.08,-0.115c0.034,-0.033 0.075,-0.058 0.122,-0.076c0.046,-0.018 0.097,-0.027 0.152,-0.027c0.056,0 0.106,0.009 0.153,0.027c0.046,0.018 0.087,0.043 0.121,0.076c0.034,0.032 0.061,0.071 0.08,0.114c0.019,0.044 0.029,0.093 0.029,0.145c-0,0.052 -0.01,0.1 -0.029,0.145c-0.019,0.044 -0.046,0.082 -0.08,0.114c-0.034,0.033 -0.075,0.058 -0.121,0.076c-0.047,0.018 -0.097,0.027 -0.152,0.027Zm-0.001,-0.138c0.031,0 0.06,-0.005 0.087,-0.016c0.026,-0.011 0.049,-0.026 0.069,-0.046c0.02,-0.02 0.035,-0.044 0.046,-0.071c0.011,-0.028 0.017,-0.058 0.017,-0.091c-0,-0.033 -0.006,-0.064 -0.017,-0.091c-0.011,-0.027 -0.026,-0.051 -0.046,-0.071c-0.02,-0.02 -0.043,-0.035 -0.069,-0.046c-0.027,-0.011 -0.056,-0.016 -0.087,-0.016c-0.031,-0 -0.06,0.005 -0.087,0.016c-0.026,0.011 -0.049,0.026 -0.069,0.046c-0.02,0.02 -0.035,0.044 -0.046,0.071c-0.011,0.028 -0.017,0.058 -0.017,0.091c0,0.033 0.006,0.063 0.017,0.091c0.011,0.027 0.026,0.051 0.046,0.071c0.019,0.02 0.043,0.035 0.069,0.046c0.027,0.011 0.056,0.016 0.087,0.016Z" style="fill-rule:nonzero;"/></g><g transform="matrix(120,0,0,120,175.048,312)"><path d="M0.423,0.012c-0.056,-0 -0.107,-0.009 -0.153,-0.027c-0.047,-0.018 -0.088,-0.044 -0.122,-0.076c-0.034,-0.033 -0.061,-0.071 -0.08,-0.115c-0.019,-0.044 -0.029,-0.092 -0.029,-0.144c0,-0.052 0.01,-0.1 0.029,-0.144c0.019,-0.044 0.046,-0.082 0.08,-0.115c0.034,-0.033 0.075,-0.058 0.122,-0.076c0.046,-0.018 0.097,-0.027 0.152,-0.027c0.056,0 0.106,0.009 0.153,0.027c0.046,0.018 0.087,0.043 0.121,0.076c0.034,0.032 0.061,0.071 0.08,0.114c0.019,0.044 0.029,0.093 0.029,0.145c-0,0.052 -0.01,0.1 -0.029,0.145c-0.019,0.044 -0.046,0.082 -0.08,0.114c-0.034,0.033 -0.075,0.058 -0.121,0.076c-0.047,0.018 -0.097,0.027 -0.152,0.027Zm-0.001,-0.138c0.031,0 0.06,-0.005 0.087,-0.016c0.026,-0.011 0.049,-0.026 0.069,-0.046c0.02,-0.02 0.035,-0.044 0.046,-0.071c0.011,-0.028 0.017,-0.058 0.017,-0.091c-0,-0.033 -0.006,-0.064 -0.017,-0.091c-0.011,-0.027 -0.026,-0.051 -0.046,-0.071c-0.02,-0.02 -0.043,-0.035 -0.069,-0.046c-0.027,-0.011 -0.056,-0.016 -0.087,-0.016c-0.031,-0 -0.06,0.005 -0.087,0.016c-0.026,0.011 -0.049,0.026 -0.069,0.046c-0.02,0.02 -0.035,0.044 -0.046,0.071c-0.011,0.028 -0.017,0.058 -0.017,0.091c0,0.033 0.006,0.063 0.017,0.091c0.011,0.027 0.026,0.051 0.046,0.071c0.019,0.02 0.043,0.035 0.069,0.046c0.027,0.011 0.056,0.016 0.087,0.016Z" style="fill-rule:nonzero;"/></g><g transform="matrix(120,0,0,120,276.328,312)"><path d="M0.083,-0l-0,-0.7l0.303,0c0.062,0 0.117,0.01 0.162,0.031c0.046,0.02 0.081,0.049 0.105,0.087c0.025,0.038 0.037,0.083 0.037,0.136c0,0.052 -0.012,0.097 -0.037,0.135c-0.024,0.038 -0.059,0.067 -0.105,0.087c-0.045,0.021 -0.1,0.031 -0.162,0.031l-0.213,-0l0.072,-0.073l0,0.266l-0.162,-0Zm0.162,-0.248l-0.072,-0.077l0.204,-0c0.05,-0 0.087,-0.011 0.112,-0.032c0.025,-0.021 0.037,-0.051 0.037,-0.089c0,-0.039 -0.012,-0.069 -0.037,-0.09c-0.025,-0.021 -0.062,-0.032 -0.112,-0.032l-0.204,-0l0.072,-0.077l0,0.397Z" style="fill-rule:nonzero;"/></g><g transform="matrix(120,0,0,120,362.968,312)"><path d="M0.083,-0l-0,-0.7l0.529,0l-0,0.13l-0.368,0l-0,0.44l0.381,-0l0,0.13l-0.542,0Zm0.149,-0.292l-0,-0.126l0.337,-0l0,0.126l-0.337,-0Z" style="fill-rule:nonzero;"/></g><g transform="matrix(120,0,0,120,443.488,312)"><path d="M0.083,-0l-0,-0.7l0.299,0c0.097,0 0.173,0.023 0.227,0.068c0.054,0.045 0.081,0.107 0.081,0.186c0,0.052 -0.012,0.097 -0.037,0.134c-0.024,0.038 -0.059,0.067 -0.105,0.087c-0.045,0.02 -0.1,0.03 -0.162,0.03l-0.213,-0l0.072,-0.071l0,0.266l-0.162,0Zm0.446,0l-0.176,-0.254l0.173,-0l0.177,0.254l-0.174,0Zm-0.284,-0.248l-0.072,-0.076l0.204,-0c0.05,-0 0.087,-0.011 0.112,-0.033c0.025,-0.021 0.037,-0.051 0.037,-0.089c0,-0.039 -0.012,-0.069 -0.037,-0.09c-0.025,-0.021 -0.062,-0.032 -0.112,-0.032l-0.204,-0l0.072,-0.077l0,0.397Z" style="fill-rule:nonzero;"/></g><g transform="matrix(120,0,0,120,531.688,312)"></g></svg>