<?xml version="1.0" encoding="UTF-8" standalone="no"?><!DOCTYPE svg PUBLIC "-//W3C//DTD SVG 1.1//EN" "http://www.w3.org/Graphics/SVG/1.1/DTD/svg11.dtd"><svg width="100%" height="100%" viewBox="0 0 540 540" version="1.1" xmlns="http://www.w3.org/2000/svg" xmlns:xlink="http://www.w3.org/1999/xlink" xml:space="preserve" xmlns:serif="http://www.serif.com/" style="fill-rule:evenodd;clip-rule:evenodd;stroke-linecap:round;stroke-linejoin:round;stroke-miterlimit:1.5;"><g><g transform="matrix(160.466,0,0,160.466,197.36,326.163)"><path d="M0.423,0.012c-0.056,-0 -0.107,-0.009 -0.153,-0.027c-0.047,-0.018 -0.088,-0.044 -0.122,-0.076c-0.034,-0.033 -0.061,-0.071 -0.08,-0.115c-0.019,-0.044 -0.029,-0.092 -0.029,-0.144c0,-0.052 0.01,-0.1 0.029,-0.144c0.019,-0.044 0.046,-0.082 0.08,-0.115c0.034,-0.033 0.075,-0.058 0.122,-0.076c0.046,-0.018 0.097,-0.027 0.152,-0.027c0.056,0 0.106,0.009 0.153,0.027c0.046,0.018 0.087,0.043 0.121,0.076c0.034,0.032 0.061,0.071 0.08,0.114c0.019,0.044 0.029,0.093 0.029,0.145c-0,0.052 -0.01,0.1 -0.029,0.145c-0.019,0.044 -0.046,0.082 -0.08,0.114c-0.034,0.033 -0.075,0.058 -0.121,0.076c-0.047,0.018 -0.097,0.027 -0.152,0.027Zm-0.001,-0.138c0.031,0 0.06,-0.005 0.087,-0.016c0.026,-0.011 0.049,-0.026 0.069,-0.046c0.02,-0.02 0.035,-0.044 0.046,-0.071c0.011,-0.028 0.017,-0.058 0.017,-0.091c-0,-0.033 -0.006,-0.064 -0.017,-0.091c-0.011,-0.027 -0.026,-0.051 -0.046,-0.071c-0.02,-0.02 -0.043,-0.035 -0.069,-0.046c-0.027,-0.011 -0.056,-0.016 -0.087,-0.016c-0.031,-0 -0.06,0.005 -0.087,0.016c-0.026,0.011 -0.049,0.026 -0.069,0.046c-0.02,0.02 -0.035,0.044 -0.046,0.071c-0.011,0.028 -0.017,0.058 -0.017,0.091c0,0.033 0.006,0.063 0.017,0.091c0.011,0.027 0.026,0.051 0.046,0.071c0.019,0.02 0.043,0.035 0.069,0.046c0.027,0.011 0.056,0.016 0.087,0.016Z" style="fill-rule:nonzero;"/></g><g transform="matrix(160.466,0,0,160.466,310.328,326.163)"><path d="M0.423,0.012c-0.056,-0 -0.107,-0.009 -0.153,-0.027c-0.047,-0.018 -0.088,-0.044 -0.122,-0.076c-0.034,-0.033 -0.061,-0.071 -0.08,-0.115c-0.019,-0.044 -0.029,-0.092 -0.029,-0.144c0,-0.052 0.01,-0.1 0.029,-0.144c0.019,-0.044 0.046,-0.082 0.08,-0.115c0.034,-0.033 0.075,-0.058 0.122,-0.076c0.046,-0.018 0.097,-0.027 0.152,-0.027c0.056,0 0.106,0.009 0.153,0.027c0.046,0.018 0.087,0.043 0.121,0.076c0.034,0.032 0.061,0.071 0.08,0.114c0.019,0.044 0.029,0.093 0.029,0.145c-0,0.052 -0.01,0.1 -0.029,0.145c-0.019,0.044 -0.046,0.082 -0.08,0.114c-0.034,0.033 -0.075,0.058 -0.121,0.076c-0.047,0.018 -0.097,0.027 -0.152,0.027Zm-0.001,-0.138c0.031,0 0.06,-0.005 0.087,-0.016c0.026,-0.011 0.049,-0.026 0.069,-0.046c0.02,-0.02 0.035,-0.044 0.046,-0.071c0.011,-0.028 0.017,-0.058 0.017,-0.091c-0,-0.033 -0.006,-0.064 -0.017,-0.091c-0.011,-0.027 -0.026,-0.051 -0.046,-0.071c-0.02,-0.02 -0.043,-0.035 -0.069,-0.046c-0.027,-0.011 -0.056,-0.016 -0.087,-0.016c-0.031,-0 -0.06,0.005 -0.087,0.016c-0.026,0.011 -0.049,0.026 -0.069,0.046c-0.02,0.02 -0.035,0.044 -0.046,0.071c-0.011,0.028 -0.017,0.058 -0.017,0.091c0,0.033 0.006,0.063 0.017,0.091c0.011,0.027 0.026,0.051 0.046,0.071c0.019,0.02 0.043,0.035 0.069,0.046c0.027,0.011 0.056,0.016 0.087,0.016Z" style="fill-rule:nonzero;"/></g><g transform="matrix(160.466,0,0,160.466,445.761,326.163)"></g><path d="M379.832,220.243l-183.6,-0" style="fill:none;stroke:#000;stroke-width:16.42px;"/><path d="M148.404,315.129l-47.829,-0" style="fill:none;stroke:#000;stroke-width:16.42px;"/><path d="M194.366,221.307l-93.729,93.729" style="fill:none;stroke:#000;stroke-width:16.4px;"/></g></svg>